<svg width="61" height="60" viewBox="0 0 61 60" fill="none" xmlns="http://www.w3.org/2000/svg">
<path opacity="0.3" d="M37.5 0C50.2025 0 60.5 10.2975 60.5 23V37C60.5 49.7025 50.2025 60 37.5 60H23.5C10.7975 60 0.5 49.7025 0.5 37V23C0.5 10.2975 10.7975 0 23.5 0H37.5Z" fill="#FFDD15"/>
<path d="M45.7047 39.0875C41.3038 31.0484 36.9022 23.0094 32.5001 14.9703C32.3533 14.6921 32.1334 14.4592 31.864 14.2968C31.5946 14.1343 31.286 14.0485 30.9715 14.0485C30.6569 14.0485 30.3483 14.1343 30.0789 14.2968C29.8096 14.4592 29.5896 14.6921 29.4429 14.9703C25.0418 23.0094 20.6369 31.0484 16.2382 39.0875C15.5571 40.3292 16.4252 41.9389 17.7654 41.9389H44.1794C44.9219 41.9389 45.4207 41.5391 45.6808 40.9967C46.008 40.4802 46.0957 39.7944 45.7066 39.0866" fill="#FFDD15"/>
<path d="M29.5549 30.1611L29.1381 23.9445C29.061 22.7336 29.0225 21.8641 29.0228 21.3359C29.0228 20.6169 29.2103 20.0577 29.5863 19.6541C29.9635 19.2525 30.4595 19.0516 31.0745 19.0513C31.8166 19.0513 32.3149 19.3095 32.5642 19.8228C32.8164 20.3391 32.9428 21.0814 32.9435 22.0498C32.9435 22.6198 32.9125 23.1992 32.8506 23.788L32.2928 30.1859C32.2325 30.9481 32.1033 31.5323 31.9052 31.9386C31.7055 32.3469 31.3764 32.5484 30.9166 32.5484C30.4516 32.5484 30.1244 32.352 29.9453 31.9592C29.7611 31.565 29.6322 30.9655 29.5549 30.1611ZM30.9949 38.7003C30.4677 38.7009 30.0072 38.5302 29.6135 38.188C29.2197 37.8464 29.0228 37.3686 29.0228 36.7545C29.0228 36.2187 29.2103 35.7608 29.5863 35.3853C29.9636 35.0075 30.4235 34.82 30.9695 34.82C31.5156 34.82 31.9788 35.0075 32.365 35.3853C32.747 35.7608 32.9435 36.2187 32.9435 36.7545C32.9435 37.3592 32.747 37.8364 32.3594 38.1814C31.9866 38.5208 31.499 38.7062 30.9949 38.7003Z" fill="#1F2E35"/>
</svg>
