<svg width="44" height="44" viewBox="0 0 44 44" fill="none" xmlns="http://www.w3.org/2000/svg">
<path fill-rule="evenodd" clip-rule="evenodd" d="M22 44C34.1503 44 44 34.1503 44 22C44 9.84974 34.1503 0 22 0C9.84974 0 0 9.84974 0 22C0 34.1503 9.84974 44 22 44Z" fill="#EAF1FF"/>
<mask id="mask0_157_487" style="mask-type:luminance" maskUnits="userSpaceOnUse" x="-1" y="-1" width="46" height="46">
<path fill-rule="evenodd" clip-rule="evenodd" d="M22 44C34.1503 44 44 34.1503 44 22C44 9.84974 34.1503 0 22 0C9.84974 0 0 9.84974 0 22C0 34.1503 9.84974 44 22 44Z" fill="white" stroke="white" stroke-width="2"/>
</mask>
<g mask="url(#mask0_157_487)">
</g>
<path fill-rule="evenodd" clip-rule="evenodd" d="M18 16C18 14.9391 18.4214 13.9217 19.1716 13.1716C19.9217 12.4214 20.9391 12 22 12C23.0609 12 24.0783 12.4214 24.8284 13.1716C25.5786 13.9217 26 14.9391 26 16C26 17.0609 25.5786 18.0783 24.8284 18.8284C24.0783 19.5786 23.0609 20 22 20C20.9391 20 19.9217 19.5786 19.1716 18.8284C18.4214 18.0783 18 17.0609 18 16ZM18 22C16.6739 22 15.4021 22.5268 14.4645 23.4645C13.5268 24.4021 13 25.6739 13 27C13 27.7956 13.3161 28.5587 13.8787 29.1213C14.4413 29.6839 15.2044 30 16 30H28C28.7956 30 29.5587 29.6839 30.1213 29.1213C30.6839 28.5587 31 27.7956 31 27C31 25.6739 30.4732 24.4021 29.5355 23.4645C28.5979 22.5268 27.3261 22 26 22H18Z" fill="#A3BFFF"/>
</svg>
