<svg width="20" height="20" viewBox="0 0 20 20" fill="none" xmlns="http://www.w3.org/2000/svg">
<path d="M10 0.900391C15.0258 0.900391 19.0996 4.97421 19.0996 10C19.0996 15.0258 15.0258 19.0996 10 19.0996C4.97421 19.0996 0.900391 15.0258 0.900391 10C0.900391 4.97421 4.97421 0.900391 10 0.900391Z" stroke="#5C5C5C" stroke-width="0.2"/>
<path d="M10 11.9745L7.73162 9.09278C7.56425 8.88016 7.29289 8.88016 7.12553 9.09278C6.95816 9.3054 6.95816 9.65013 7.12553 9.86274L9.69695 13.1294C9.86432 13.342 10.1357 13.342 10.303 13.1294L12.8745 9.86274C13.0418 9.65013 13.0418 9.3054 12.8745 9.09278C12.7071 8.88016 12.4358 8.88016 12.2684 9.09278L10 11.9745Z" fill="#565656"/>
<mask id="mask0_129_1485" style="mask-type:luminance" maskUnits="userSpaceOnUse" x="7" y="8" width="6" height="6">
<path d="M10 11.9745L7.73162 9.09278C7.56425 8.88016 7.29289 8.88016 7.12553 9.09278C6.95816 9.3054 6.95816 9.65013 7.12553 9.86274L9.69695 13.1294C9.86432 13.342 10.1357 13.342 10.303 13.1294L12.8745 9.86274C13.0418 9.65013 13.0418 9.3054 12.8745 9.09278C12.7071 8.88016 12.4358 8.88016 12.2684 9.09278L10 11.9745Z" fill="white"/>
</mask>
<g mask="url(#mask0_129_1485)">
</g>
</svg>
