<svg width="61" height="60" viewBox="0 0 61 60" fill="none" xmlns="http://www.w3.org/2000/svg">
<path opacity="0.3" d="M37.5 0C50.2025 0 60.5 10.2975 60.5 23V37C60.5 49.7025 50.2025 60 37.5 60H23.5C10.7975 60 0.5 49.7025 0.5 37V23C0.5 10.2975 10.7975 0 23.5 0H37.5Z" fill="#FF0000"/>
<path d="M18.5521 30.5C18.5521 37.6339 24.3349 43.4167 31.4688 43.4167C38.6027 43.4167 44.3855 37.6339 44.3855 30.5C44.3855 23.3661 38.6027 17.5833 31.4688 17.5833M21.9737 21.5604C22.152 21.3709 22.3358 21.1867 22.5253 21.0075M26.2337 18.5263C26.4687 18.4212 26.7068 18.3226 26.948 18.2305M19.4976 25.2584C19.3908 25.4952 19.291 25.7355 19.198 25.9792M35.3438 26.625L31.4688 30.5M31.4688 30.5L27.5938 34.375M31.4688 30.5L35.3438 34.375M31.4688 30.5L27.5938 26.625" stroke="#FF0000" stroke-width="3" stroke-linecap="round" stroke-linejoin="round"/>
</svg>
