<svg width="61" height="60" viewBox="0 0 61 60" fill="none" xmlns="http://www.w3.org/2000/svg">
<path opacity="0.21" d="M37.5 0C50.2025 0 60.5 10.2975 60.5 23V37C60.5 49.7025 50.2025 60 37.5 60H23.5C10.7975 60 0.5 49.7025 0.5 37V23C0.5 10.2975 10.7975 0 23.5 0H37.5Z" fill="#4AD991"/>
<path d="M19.6111 40.8889H42.9444C43.8036 40.8889 44.5 41.5853 44.5 42.4444C44.5 43.3036 43.8036 44 42.9444 44H18.0556C17.1964 44 16.5 43.3036 16.5 42.4444V17.5556C16.5 16.6964 17.1964 16 18.0556 16C18.9147 16 19.6111 16.6964 19.6111 17.5556V40.8889Z" fill="#4AD991"/>
<path opacity="0.5" d="M25.4126 34.175C24.825 34.8018 23.8406 34.8335 23.2139 34.2459C22.5871 33.6584 22.5554 32.674 23.143 32.0472L28.9763 25.825C29.5445 25.2188 30.4888 25.1663 31.1209 25.7056L35.7249 29.6344L41.7235 22.0361C42.2559 21.3618 43.234 21.2467 43.9083 21.7791C44.5826 22.3114 44.6977 23.2896 44.1654 23.9639L37.1654 32.8306C36.6186 33.5231 35.6059 33.6227 34.9347 33.05L30.2306 29.0358L25.4126 34.175Z" fill="#4AD991"/>
</svg>
