<svg width="61" height="60" viewBox="0 0 61 60" fill="none" xmlns="http://www.w3.org/2000/svg">
<path opacity="0.21" d="M37.5 0C50.2025 0 60.5 10.2975 60.5 23V37C60.5 49.7025 50.2025 60 37.5 60H23.5C10.7975 60 0.5 49.7025 0.5 37V23C0.5 10.2975 10.7975 0 23.5 0H37.5Z" fill="#FEC53D"/>
<path fill-rule="evenodd" clip-rule="evenodd" d="M15.5 24.3163L28.4005 31.7644C28.5394 31.8446 28.6851 31.9025 28.8333 31.9393V46.3845L16.4201 39.0383C15.8498 38.7008 15.5 38.0874 15.5 37.4247V24.3163ZM45.5 24.1185V37.4249C45.5 38.0876 45.1502 38.701 44.5799 39.0385L32.1667 46.3847V31.8129C32.1969 31.7978 32.2269 31.7817 32.2566 31.7646L45.5 24.1185V24.1185Z" fill="#FEC53D"/>
<path opacity="0.499209" fill-rule="evenodd" clip-rule="evenodd" d="M15.9052 20.7014C16.0628 20.5024 16.2617 20.3343 16.4936 20.2108L29.6186 13.2201C30.1695 12.9266 30.8304 12.9266 31.3814 13.2201L44.5064 20.2108C44.6852 20.306 44.8443 20.4277 44.98 20.5697L30.5899 28.8778C30.4953 28.9325 30.408 28.995 30.3285 29.064C30.249 28.995 30.1618 28.9325 30.0671 28.8778L15.9052 20.7014Z" fill="#FEC53D"/>
</svg>
