<svg width="61" height="60" viewBox="0 0 61 60" fill="none" xmlns="http://www.w3.org/2000/svg">
<path opacity="0.3" d="M37.5 0C50.2025 0 60.5 10.2975 60.5 23V37C60.5 49.7025 50.2025 60 37.5 60H23.5C10.7975 60 0.5 49.7025 0.5 37V23C0.5 10.2975 10.7975 0 23.5 0H37.5Z" fill="#9C9245"/>
<path d="M10.848 31V14.08H18.192C20.048 14.08 21.48 14.528 22.488 15.424C23.496 16.304 24 17.544 24 19.144C24 20.184 23.768 21.08 23.304 21.832C22.856 22.584 22.2 23.16 21.336 23.56C20.472 23.96 19.424 24.16 18.192 24.16L18.408 23.8H19.2C19.856 23.8 20.424 23.96 20.904 24.28C21.4 24.6 21.832 25.104 22.2 25.792L25.032 31H21.648L18.72 25.6C18.528 25.248 18.312 24.976 18.072 24.784C17.832 24.576 17.56 24.432 17.256 24.352C16.952 24.272 16.6 24.232 16.2 24.232H13.92V31H10.848ZM13.92 21.952H17.664C18.768 21.952 19.6 21.728 20.16 21.28C20.736 20.816 21.024 20.128 21.024 19.216C21.024 18.32 20.736 17.648 20.16 17.2C19.6 16.736 18.768 16.504 17.664 16.504H13.92V21.952ZM28.0131 35.32V19.264H30.9411V21.736H30.7011C30.9411 20.92 31.4291 20.264 32.1651 19.768C32.9171 19.272 33.7891 19.024 34.7811 19.024C35.8051 19.024 36.7011 19.272 37.4691 19.768C38.2531 20.264 38.8611 20.968 39.2931 21.88C39.7251 22.776 39.9411 23.856 39.9411 25.12C39.9411 26.368 39.7251 27.456 39.2931 28.384C38.8611 29.296 38.2611 30 37.4931 30.496C36.7251 30.992 35.8211 31.24 34.7811 31.24C33.8051 31.24 32.9491 31 32.2131 30.52C31.4771 30.024 30.9811 29.384 30.7251 28.6H31.0131V35.32H28.0131ZM33.9411 28.96C34.8371 28.96 35.5571 28.64 36.1011 28C36.6451 27.344 36.9171 26.384 36.9171 25.12C36.9171 23.84 36.6451 22.888 36.1011 22.264C35.5571 21.624 34.8371 21.304 33.9411 21.304C33.0451 21.304 32.3251 21.624 31.7811 22.264C31.2371 22.888 30.9651 23.84 30.9651 25.12C30.9651 26.384 31.2371 27.344 31.7811 28C32.3251 28.64 33.0451 28.96 33.9411 28.96Z" fill="#9C9245"/>
<g clip-path="url(#clip0_375_794)">
<path fill-rule="evenodd" clip-rule="evenodd" d="M54.8997 32.0663L36.9167 50.0493L27.1003 40.233L30.3997 36.9337L36.9167 43.4507L51.6003 28.767L54.8997 32.0663Z" fill="#9C9245" stroke="#9C9245"/>
</g>
<defs>
<clipPath id="clip0_375_794">
<rect width="28" height="28" fill="white" transform="translate(27 24)"/>
</clipPath>
</defs>
</svg>
