<svg width="61" height="60" viewBox="0 0 61 60" fill="none" xmlns="http://www.w3.org/2000/svg">
<path opacity="0.3" d="M37.5 0C50.2025 0 60.5 10.2975 60.5 23V37C60.5 49.7025 50.2025 60 37.5 60H23.5C10.7975 60 0.5 49.7025 0.5 37V23C0.5 10.2975 10.7975 0 23.5 0H37.5Z" fill="#0059FF"/>
<path d="M34.5625 41.5C34.5625 41.5 35.9375 41.5 37.3125 44.25C37.3125 44.25 41.6809 37.375 45.5625 36M25.625 36H31.125M25.625 29.125H36.625M24.9375 18.8125C22.798 18.8771 21.5234 19.115 20.6406 19.9977C19.432 21.2077 19.432 23.1534 19.432 27.046V35.9918C19.432 39.8858 19.432 41.8314 20.6406 43.0414C21.8479 44.25 23.7935 44.25 27.682 44.25H31.1195M37.3015 18.8125C39.441 18.8771 40.717 19.115 41.5984 19.9977C42.8084 21.2077 42.8084 23.1534 42.8084 27.046V32.5625" stroke="#0059FF" stroke-width="3" stroke-linecap="round" stroke-linejoin="round"/>
<path d="M26 18.5C26 17.12 26.8711 16 27.9444 16H34.0556C34.5713 16 35.0658 16.2634 35.4305 16.7322C35.7951 17.2011 36 17.837 36 18.5C36 19.163 35.7951 19.7989 35.4305 20.2678C35.0658 20.7366 34.5713 21 34.0556 21H27.9444C27.4287 21 26.9342 20.7366 26.5695 20.2678C26.2049 19.7989 26 19.163 26 18.5Z" stroke="#0059FF" stroke-width="2" stroke-linecap="round" stroke-linejoin="round"/>
</svg>
