<svg width="61" height="60" viewBox="0 0 61 60" fill="none" xmlns="http://www.w3.org/2000/svg">
<path opacity="0.3" d="M37.5 0C50.2025 0 60.5 10.2975 60.5 23V37C60.5 49.7025 50.2025 60 37.5 60H23.5C10.7975 60 0.5 49.7025 0.5 37V23C0.5 10.2975 10.7975 0 23.5 0H37.5Z" fill="#FF9066"/>
<path opacity="0.78" fill-rule="evenodd" clip-rule="evenodd" d="M29.1312 23.8088C29.1512 23.5483 29.3684 23.3472 29.6297 23.3472H30.0475C30.3044 23.3472 30.5195 23.5418 30.545 23.7974L31.1667 30.0139L35.5814 32.5366C35.7372 32.6256 35.8333 32.7913 35.8333 32.9707V33.3592C35.8333 33.6889 35.5199 33.9284 35.2018 33.8416L28.8987 32.1226C28.6673 32.0595 28.5133 31.841 28.5317 31.6019L29.1312 23.8088Z" fill="#FF9066"/>
<path opacity="0.901274" d="M22.3525 15.1894C22.4481 14.7902 22.9576 14.6698 23.2217 14.9843L25.0205 17.1288C26.7037 16.4122 28.5552 16.0136 30.5 16.0136C38.2319 16.0136 44.4998 22.2818 44.5 30.0136C44.5 37.7456 38.232 44.0136 30.5 44.0136C22.768 44.0136 16.5 37.7456 16.5 30.0136C16.5 28.7006 16.6805 27.4296 17.0186 26.2245L19.5859 26.9452C19.3086 27.9341 19.167 28.9631 19.167 30.0136C19.167 36.2728 24.2408 41.3476 30.5 41.3476C36.7592 41.3476 41.833 36.2728 41.833 30.0136C41.8328 23.9501 37.0712 18.9987 31.083 18.6952L30.5 18.6806C29.2318 18.6806 27.9968 18.889 26.832 19.287L28.6328 21.4335C28.8974 21.7488 28.6892 22.2305 28.2783 22.2538L21.2334 22.6533C20.8992 22.6721 20.6411 22.3636 20.7188 22.038L22.3525 15.1894Z" fill="#FF9066"/>
</svg>
