<svg width="61" height="60" viewBox="0 0 61 60" fill="none" xmlns="http://www.w3.org/2000/svg">
<path opacity="0.21" d="M37.5 0C50.2025 0 60.5 10.2975 60.5 23V37C60.5 49.7025 50.2025 60 37.5 60H23.5C10.7975 60 0.5 49.7025 0.5 37V23C0.5 10.2975 10.7975 0 23.5 0H37.5Z" fill="#8280FF"/>
<path opacity="0.587821" d="M38.4997 24.667C40.7088 24.667 42.4997 26.4579 42.4997 28.667C42.4995 30.876 40.7087 32.667 38.4997 32.667C36.2908 32.6668 34.4998 30.8759 34.4997 28.667C34.4997 26.458 36.2907 24.6672 38.4997 24.667ZM26.4997 18C29.4451 18 31.8335 20.3876 31.8336 23.333C31.8336 26.2785 29.4452 28.667 26.4997 28.667C23.5543 28.6668 21.1667 26.2784 21.1667 23.333C21.1668 20.3877 23.5544 18.0002 26.4997 18Z" fill="#8280FF"/>
<path d="M26.4774 31.3333C32.8611 31.3333 38.1061 34.3908 38.497 40.9329C38.5125 41.1936 38.4966 42.0003 37.495 42.0003H15.4696C15.1351 41.9999 14.4727 41.2785 14.5009 40.932C15.0178 34.5687 20.1824 31.3334 26.4774 31.3333ZM37.9686 34.0033C42.5103 34.0531 46.2187 36.3469 46.4979 41.1995C46.5092 41.395 46.4977 42.0003 45.7743 42.0003H40.6337C40.6337 38.9999 39.6413 36.2312 37.9686 34.0033Z" fill="#8280FF"/>
</svg>
